<?xml version="1.0" encoding="iso-8859-1"?>
<!-- Generator: Adobe Illustrator 18.1.1, SVG Export Plug-In . SVG Version: 6.00 Build 0)  -->
<svg xmlns="http://www.w3.org/2000/svg" xmlns:xlink="http://www.w3.org/1999/xlink" version="1.1" id="Capa_1" x="0px" y="0px" viewBox="0 0 174.239 174.239" style="enable-background:new 0 0 174.239 174.239;" xml:space="preserve" width="512px" height="512px">
<path d="M172.032,161.492l-27.432-27.429c-0.277-0.277-0.633-0.399-0.939-0.624c26.711-31.913,25.119-79.643-4.86-109.622  C123.441,8.459,103.019,0,81.3,0C59.579,0,39.158,8.459,23.8,23.817c-31.707,31.707-31.707,83.298,0,115.001  c15.358,15.363,35.779,23.822,57.5,23.822c19.285,0,37.524-6.698,52.125-18.944c0.222,0.303,0.342,0.654,0.616,0.927l27.432,27.429  c1.458,1.458,3.369,2.188,5.28,2.188s3.824-0.729,5.28-2.188C174.949,169.135,174.949,164.409,172.032,161.492z M81.3,147.705  c-17.733,0-34.403-6.908-46.941-19.446c-25.883-25.883-25.883-67.994,0-93.882C46.897,21.838,63.568,14.935,81.3,14.935  c17.73,0,34.403,6.903,46.941,19.441c25.883,25.888,25.883,67.999,0,93.882C115.701,140.796,99.031,147.705,81.3,147.705z" fill="#FFFFFF"/>
<g>
</g>
<g>
</g>
<g>
</g>
<g>
</g>
<g>
</g>
<g>
</g>
<g>
</g>
<g>
</g>
<g>
</g>
<g>
</g>
<g>
</g>
<g>
</g>
<g>
</g>
<g>
</g>
<g>
</g>
</svg>
